<svg width="686" height="115" viewBox="0 0 686 115" fill="none" xmlns="http://www.w3.org/2000/svg">
<g filter="url(#filter0_d_4_9)">
<path d="M83.1 13.74V105H60.87V67.43H26.29V105H4.06V13.74H26.29V49.49H60.87V13.74H83.1ZM143.348 31.68C151.841 31.68 158.601 34.4533 163.628 40C168.741 45.46 171.298 53 171.298 62.62V105H149.198V65.61C149.198 60.7567 147.941 56.9867 145.428 54.3C142.915 51.6133 139.535 50.27 135.288 50.27C131.041 50.27 127.661 51.6133 125.148 54.3C122.635 56.9867 121.378 60.7567 121.378 65.61V105H99.1479V32.46H121.378V42.08C123.631 38.8733 126.665 36.36 130.478 34.54C134.291 32.6333 138.581 31.68 143.348 31.68ZM197.926 24.92C194.026 24.92 190.819 23.7933 188.306 21.54C185.879 19.2 184.666 16.34 184.666 12.96C184.666 9.49333 185.879 6.63333 188.306 4.37999C190.819 2.03999 194.026 0.869992 197.926 0.869992C201.739 0.869992 204.859 2.03999 207.286 4.37999C209.799 6.63333 211.056 9.49333 211.056 12.96C211.056 16.34 209.799 19.2 207.286 21.54C204.859 23.7933 201.739 24.92 197.926 24.92ZM208.976 32.46V105H186.746V32.46H208.976ZM269.285 31.68C277.779 31.68 284.539 34.4533 289.565 40C294.679 45.46 297.235 53 297.235 62.62V105H275.135V65.61C275.135 60.7567 273.879 56.9867 271.365 54.3C268.852 51.6133 265.472 50.27 261.225 50.27C256.979 50.27 253.599 51.6133 251.085 54.3C248.572 56.9867 247.315 60.7567 247.315 65.61V105H225.085V32.46H247.315V42.08C249.569 38.8733 252.602 36.36 256.415 34.54C260.229 32.6333 264.519 31.68 269.285 31.68ZM362.462 13.74V105H340.232V13.74H362.462ZM422.772 31.68C431.265 31.68 438.025 34.4533 443.052 40C448.165 45.46 450.722 53 450.722 62.62V105H428.622V65.61C428.622 60.7567 427.365 56.9867 424.852 54.3C422.338 51.6133 418.958 50.27 414.712 50.27C410.465 50.27 407.085 51.6133 404.572 54.3C402.058 56.9867 400.802 60.7567 400.802 65.61V105H378.572V32.46H400.802V42.08C403.055 38.8733 406.088 36.36 409.902 34.54C413.715 32.6333 418.005 31.68 422.772 31.68ZM486.969 86.67H518.429V105H462.139V87.32L492.299 50.79H462.399V32.46H517.779V50.14L486.969 86.67ZM526.242 68.6C526.242 61.1467 527.628 54.6033 530.402 48.97C533.262 43.3367 537.118 39.0033 541.972 35.97C546.825 32.9367 552.242 31.42 558.222 31.42C563.335 31.42 567.798 32.46 571.612 34.54C575.512 36.62 578.502 39.35 580.582 42.73V32.46H602.812V105H580.582V94.73C578.415 98.11 575.382 100.84 571.482 102.92C567.668 105 563.205 106.04 558.092 106.04C552.198 106.04 546.825 104.523 541.972 101.49C537.118 98.37 533.262 93.9933 530.402 88.36C527.628 82.64 526.242 76.0533 526.242 68.6ZM580.582 68.73C580.582 63.1833 579.022 58.8067 575.902 55.6C572.868 52.3933 569.142 50.79 564.722 50.79C560.302 50.79 556.532 52.3933 553.412 55.6C550.378 58.72 548.862 63.0533 548.862 68.6C548.862 74.1467 550.378 78.5667 553.412 81.86C556.532 85.0667 560.302 86.67 564.722 86.67C569.142 86.67 572.868 85.0667 575.902 81.86C579.022 78.6533 580.582 74.2767 580.582 68.73ZM641.124 8.8V105H618.894V8.8H641.124ZM668.414 24.92C664.514 24.92 661.307 23.7933 658.794 21.54C656.367 19.2 655.154 16.34 655.154 12.96C655.154 9.49333 656.367 6.63333 658.794 4.37999C661.307 2.03999 664.514 0.869992 668.414 0.869992C672.227 0.869992 675.347 2.03999 677.774 4.37999C680.287 6.63333 681.544 9.49333 681.544 12.96C681.544 16.34 680.287 19.2 677.774 21.54C675.347 23.7933 672.227 24.92 668.414 24.92ZM679.464 32.46V105H657.234V32.46H679.464Z" fill="#EC3818"/>
</g>
<defs>
<filter id="filter0_d_4_9" x="0.0599976" y="0.869995" width="685.484" height="113.17" filterUnits="userSpaceOnUse" color-interpolation-filters="sRGB">
<feFlood flood-opacity="0" result="BackgroundImageFix"/>
<feColorMatrix in="SourceAlpha" type="matrix" values="0 0 0 0 0 0 0 0 0 0 0 0 0 0 0 0 0 0 127 0" result="hardAlpha"/>
<feOffset dy="4"/>
<feGaussianBlur stdDeviation="2"/>
<feComposite in2="hardAlpha" operator="out"/>
<feColorMatrix type="matrix" values="0 0 0 0 0 0 0 0 0 0 0 0 0 0 0 0 0 0 0.25 0"/>
<feBlend mode="normal" in2="BackgroundImageFix" result="effect1_dropShadow_4_9"/>
<feBlend mode="normal" in="SourceGraphic" in2="effect1_dropShadow_4_9" result="shape"/>
</filter>
</defs>
</svg>


